# xmcd
#
# Track frame offsets: 
#        300
#        18754
#        39200
#        55765
#        69901
#        91986
#        109460
#        130414
#        148098
#        166805
#        187055
#
# Disc length: 2739 seconds
#
# Revision: 6
# Processed by: cddbd v1.5.2PL0 Copyright (c) Steve Scherf et al.
# Submitted via: ExactAudioCopy v1.0b1
#
DISCID=930aaf0b
DTITLE=Scotty - Blue Lights
DYEAR=1900
DGENRE=Blues
TTITLE0=I'm a fool to want you
TTITLE1=Smoke get in your eyes
TTITLE2=Wonderful World
TTITLE3=Mona Lisa
TTITLE4=Geogia on my mind
TTITLE5=Misty
TTITLE6=As time goes by
TTITLE7=Too young
TTITLE8=For all we know
TTITLE9=Like a lover
TTITLE10=Lover come back
EXTD=
EXTT0=
EXTT1=
EXTT2=
EXTT3=
EXTT4=
EXTT5=
EXTT6=
EXTT7=
EXTT8=
EXTT9=
EXTT10=
PLAYORDER=
